<svg xmlns="http://www.w3.org/2000/svg" width="16" height="16" viewBox="0 0 16 16"><defs><style>.a{fill:#fff;}</style></defs><path class="a" d="M8,0a8,8,0,1,0,8,8A8,8,0,0,0,8,0ZM8,15.5A7.5,7.5,0,1,1,15.5,8,7.508,7.508,0,0,1,8,15.5Z"/><path class="a" d="M14.719,27a1.719,1.719,0,1,0,1.719,1.719A1.719,1.719,0,0,0,14.719,27Zm0,2.75a1.031,1.031,0,1,1,1.031-1.031A1.032,1.032,0,0,1,14.719,29.75Z" transform="translate(-9.976 -20.719)"/><path class="a" d="M28.719,27a1.719,1.719,0,1,0,1.719,1.719A1.719,1.719,0,0,0,28.719,27Zm0,2.75a1.031,1.031,0,1,1,1.031-1.031A1.032,1.032,0,0,1,28.719,29.75Z" transform="translate(-20.719 -20.719)"/><path class="a" d="M42.719,27a1.719,1.719,0,1,0,1.719,1.719A1.719,1.719,0,0,0,42.719,27Zm0,2.75a1.031,1.031,0,1,1,1.031-1.031A1.032,1.032,0,0,1,42.719,29.75Z" transform="translate(-31.462 -20.719)"/></svg>